<?xml version="1.0" standalone="no"?>
<!DOCTYPE svg PUBLIC "-//W3C//DTD SVG 20010904//EN"
 "http://www.w3.org/TR/2001/REC-SVG-20010904/DTD/svg10.dtd">
<svg version="1.0" xmlns="http://www.w3.org/2000/svg"
 width="470.000000pt" height="470.000000pt" viewBox="0 0 470.000000 470.000000"
 preserveAspectRatio="xMidYMid meet">
<metadata>
Created by potrace 1.14, written by Peter Selinger 2001-2017
</metadata>
<g transform="translate(0.000000,470.000000) scale(0.100000,-0.100000)"
fill="#000000" stroke="none">
<path d="M2182 4558 c-4 -4 -33 -8 -64 -9 -32 -1 -58 -7 -58 -12 0 -5 -6 -4
-13 2 -8 6 -17 8 -20 5 -4 -4 -19 -9 -34 -11 -47 -7 -97 -14 -110 -15 -7 -1
-13 -4 -13 -8 0 -3 -8 -6 -17 -7 -38 -3 -77 -13 -82 -20 -3 -4 -15 -8 -26 -7
-11 0 -35 -5 -52 -12 -18 -7 -33 -10 -33 -7 0 3 -7 0 -15 -7 -8 -7 -15 -9 -15
-5 0 4 -7 2 -15 -5 -8 -7 -15 -9 -15 -5 0 4 -7 2 -15 -5 -8 -7 -15 -10 -15 -6
0 4 -12 -2 -27 -11 -15 -10 -30 -18 -33 -17 -3 1 -18 -4 -35 -10 -16 -5 -33
-9 -37 -8 -5 1 -8 -2 -8 -7 0 -5 -10 -13 -22 -16 -28 -8 -131 -56 -138 -64 -3
-4 -16 -12 -30 -18 -14 -7 -43 -24 -65 -38 -22 -14 -48 -28 -57 -31 -10 -4
-18 -11 -18 -17 0 -6 -3 -8 -6 -4 -6 5 -28 -10 -65 -45 -9 -9 -19 -15 -21 -12
-2 2 -19 -10 -37 -26 -18 -17 -35 -30 -38 -30 -7 0 -18 -9 -90 -78 -28 -28
-54 -48 -56 -46 -4 4 -122 -121 -185 -194 -12 -15 -31 -37 -42 -49 -12 -13
-18 -23 -14 -23 4 0 -3 -8 -14 -19 -12 -10 -22 -23 -22 -30 0 -6 -5 -11 -11
-11 -5 0 -8 -4 -5 -9 3 -5 -1 -11 -9 -15 -8 -3 -15 -12 -15 -20 0 -7 -7 -17
-16 -20 -9 -4 -14 -9 -11 -12 3 -4 1 -12 -6 -20 -23 -26 -32 -40 -62 -97 -16
-31 -34 -57 -38 -57 -4 0 -7 -6 -5 -12 1 -7 -11 -38 -27 -68 -41 -77 -74 -158
-67 -164 3 -3 0 -6 -6 -6 -7 0 -11 -3 -10 -7 1 -5 -3 -23 -9 -41 -7 -18 -13
-36 -14 -40 -1 -4 -12 -35 -25 -69 -12 -35 -21 -63 -19 -63 2 0 -1 -15 -6 -32
-11 -37 -17 -60 -25 -102 -2 -16 -8 -34 -11 -39 -4 -6 -1 -7 7 -2 9 6 11 4 5
-5 -18 -29 -36 -167 -39 -297 0 -29 -5 -53 -9 -53 -4 0 -3 -9 3 -20 6 -11 7
-20 3 -20 -9 0 -10 -51 -1 -66 3 -5 6 -34 7 -64 1 -30 4 -80 8 -110 3 -30 6
-61 6 -67 0 -7 5 -13 11 -13 6 0 6 -4 -2 -12 -8 -8 -8 -16 0 -32 7 -12 14 -41
16 -66 2 -25 7 -47 10 -50 4 -3 8 -18 10 -35 1 -16 7 -41 12 -55 6 -14 11 -34
13 -45 4 -19 7 -28 24 -72 3 -10 7 -20 7 -23 1 -3 6 -18 13 -35 14 -38 24 -69
24 -75 0 -3 7 -13 16 -22 8 -9 12 -22 8 -27 -3 -6 -1 -11 5 -11 6 0 9 -4 6 -8
-3 -5 6 -25 20 -45 14 -20 22 -37 19 -37 -4 0 3 -12 13 -28 11 -15 22 -36 24
-47 1 -11 11 -26 21 -33 9 -7 15 -18 12 -23 -4 -5 1 -12 9 -15 9 -3 13 -10 10
-15 -3 -5 0 -9 6 -9 6 0 8 -5 5 -10 -3 -6 -2 -10 3 -10 5 0 15 -13 22 -29 6
-16 18 -32 27 -35 8 -3 12 -10 8 -15 -3 -6 0 -13 7 -18 7 -4 26 -27 42 -50 16
-24 40 -54 54 -68 13 -14 22 -25 18 -25 -10 0 244 -251 288 -285 22 -16 46
-38 55 -47 8 -10 21 -18 27 -18 7 0 15 -7 18 -16 3 -8 10 -12 16 -9 5 3 10 2
10 -3 0 -5 15 -17 34 -27 19 -11 33 -22 30 -27 -3 -4 7 -10 21 -14 15 -4 38
-17 52 -30 14 -13 29 -21 33 -19 5 3 15 -1 22 -9 20 -19 188 -105 218 -111 14
-3 26 -9 28 -15 2 -5 12 -10 22 -10 10 0 22 -4 25 -10 3 -5 17 -10 30 -10 13
0 25 -5 27 -10 2 -6 16 -13 31 -16 15 -2 45 -11 65 -18 52 -19 98 -32 162 -47
30 -7 58 -18 62 -24 5 -6 8 -5 8 3 0 8 5 10 12 6 17 -11 116 -28 218 -38 14
-1 31 -6 38 -10 7 -4 12 -2 12 5 0 10 3 10 11 2 8 -8 20 -8 35 -3 13 5 24 5
26 0 3 -10 261 -15 277 -5 6 3 11 4 11 0 0 -3 8 -1 18 4 13 7 23 6 30 -1 9 -9
12 -9 12 0 0 10 5 10 20 2 11 -6 20 -7 20 -2 0 7 39 13 108 16 12 1 22 4 22 8
0 5 3 7 8 6 12 -4 172 25 172 32 0 3 8 6 18 7 9 1 31 4 47 8 17 4 36 7 43 7 6
1 12 5 12 9 0 4 7 10 16 13 9 4 13 2 8 -5 -4 -8 -1 -8 13 -1 11 6 48 21 84 33
35 12 69 26 76 31 7 5 16 7 21 4 6 -3 15 1 22 8 6 8 25 18 41 21 17 4 33 13
36 21 3 8 9 11 14 8 6 -3 17 0 25 7 9 7 23 14 31 15 8 2 23 10 32 18 10 9 21
13 24 9 4 -3 7 -1 7 6 0 7 4 10 9 7 5 -3 14 1 21 9 7 8 19 15 26 15 8 0 14 4
14 9 0 5 13 14 30 21 17 7 30 17 30 22 0 5 5 6 10 3 6 -3 10 -1 10 4 0 6 5 11
11 11 6 0 17 6 24 12 31 28 44 38 51 38 3 0 21 12 38 28 18 15 50 41 72 57 41
31 289 275 280 275 -3 0 7 13 22 28 15 16 36 41 47 56 11 16 29 40 41 55 11
14 23 34 27 44 3 9 11 17 17 17 5 0 10 7 10 15 0 8 4 15 8 15 4 0 13 12 19 27
13 30 34 65 44 73 11 9 117 225 124 253 4 15 11 27 17 27 5 0 7 4 4 8 -3 5 2
21 10 36 7 16 14 33 14 40 0 6 6 22 13 36 7 14 12 34 12 45 0 11 3 22 7 25 4
3 9 16 11 28 2 12 6 25 10 28 4 4 7 18 7 30 0 13 5 26 10 29 7 4 7 12 0 25 -7
13 -6 20 1 22 7 2 12 18 13 36 0 18 3 32 6 32 3 0 6 17 8 37 1 20 7 42 13 50
8 9 8 13 0 13 -7 0 -8 8 -1 26 7 18 7 23 -1 18 -7 -4 -7 1 1 16 6 12 10 31 7
41 -3 10 -1 21 4 24 4 3 4 16 -1 30 -5 14 -5 27 -1 30 5 3 8 13 6 23 -1 9 2
22 7 29 5 7 5 14 -2 18 -6 4 -7 13 -2 23 10 20 10 33 -1 50 -5 7 -4 12 2 12 7
0 7 8 1 24 -4 13 -10 62 -11 110 -2 47 -6 86 -11 86 -4 0 -5 7 -2 15 4 8 2 21
-2 28 -5 6 -9 35 -9 62 0 28 -4 53 -8 56 -5 3 -9 21 -10 40 -1 19 -5 36 -9 39
-3 3 -8 23 -10 45 -2 22 -6 42 -10 45 -4 3 -9 17 -10 30 -2 14 -9 31 -16 39
-7 7 -11 20 -8 27 3 8 1 14 -5 14 -5 0 -9 6 -8 13 3 19 -22 77 -33 77 -5 0 -6
5 -2 11 7 11 -44 131 -58 137 -5 2 -8 12 -8 23 0 10 -4 19 -10 19 -5 0 -10 9
-10 20 0 11 -4 20 -10 20 -5 0 -10 8 -10 18 0 10 -9 28 -19 39 -11 12 -17 24
-14 27 4 3 1 6 -6 6 -7 0 -9 5 -6 10 3 6 -1 13 -9 16 -9 3 -13 10 -10 15 3 5
-2 12 -10 15 -9 3 -14 10 -11 14 2 4 -7 20 -20 34 -14 15 -25 34 -25 42 0 7
-4 14 -9 14 -12 0 -66 83 -62 95 1 6 0 7 -4 3 -8 -7 -35 15 -35 28 0 4 -19 26
-43 49 -24 23 -41 48 -39 56 3 8 2 11 -2 8 -4 -4 -37 22 -72 57 -36 35 -70 64
-75 64 -5 0 -9 7 -9 17 0 9 -3 14 -6 11 -3 -3 -24 12 -47 33 -23 21 -48 39
-54 39 -7 0 -13 4 -13 9 0 5 -17 20 -37 32 -35 22 -45 29 -93 72 -11 9 -23 17
-27 17 -19 0 -43 12 -43 21 0 5 -7 9 -15 9 -8 0 -15 4 -15 9 0 5 -11 12 -24
15 -14 3 -31 12 -38 19 -15 14 -150 83 -155 79 -2 -1 -25 9 -52 22 -27 14 -51
22 -55 19 -3 -4 -6 0 -6 7 0 7 -3 10 -6 7 -4 -3 -16 -1 -28 5 -11 7 -24 13
-28 14 -5 1 -10 3 -13 4 -5 3 -6 3 -50 15 -16 4 -34 10 -40 14 -5 3 -19 7 -29
8 -11 2 -25 8 -31 13 -7 6 -16 5 -23 -2 -8 -8 -12 -8 -12 -1 0 11 -31 22 -80
29 -33 5 -65 12 -65 14 0 2 -40 7 -82 11 -18 2 -33 6 -33 9 0 3 -13 5 -30 4
-16 -1 -30 1 -30 5 0 3 -20 5 -45 3 -29 -3 -45 0 -45 7 0 8 -5 9 -17 2 -11 -6
-26 -5 -42 1 -17 6 -27 6 -29 -1 -2 -6 -8 -8 -14 -5 -8 5 -108 8 -133 3 -5 -1
-14 0 -20 1 -27 5 -117 4 -123 -2z"/>
</g>
</svg>
